HIERARCHY
ROOT joint_Root
{
	OFFSET 0.0 0.0 0.0
	CHANNELS 6 Xposition Yposition Zposition Zrotation Xrotation Yrotation 
	JOINT Hips
	{
		OFFSET 4.5925 91.4895 -427.239
		CHANNELS 6 Xposition Yposition Zposition Zrotation Xrotation Yrotation 
		JOINT Spine
		{
			OFFSET 15.7357 0.0 0.0
			CHANNELS 6 Xposition Yposition Zposition Zrotation Xrotation Yrotation 
			JOINT Chest
			{
				OFFSET 8.98455 -0.406207 0.0
				CHANNELS 6 Xposition Yposition Zposition Zrotation Xrotation Yrotation 
				JOINT Neck
				{
					OFFSET 16.3773 0.0 0.0
					CHANNELS 6 Xposition Yposition Zposition Zrotation Xrotation Yrotation 
					JOINT Head
					{
						OFFSET 6.45672 0.0 0.0
						CHANNELS 6 Xposition Yposition Zposition Zrotation Xrotation Yrotation 
						End Site
						{
							OFFSET 0.0 0.0 0.0
						}
					}
				}
				JOINT Shoulder_L
				{
					OFFSET 12.9942 -0.242716 4.98039
					CHANNELS 6 Xposition Yposition Zposition Zrotation Xrotation Yrotation 
					JOINT UpperArm_L
					{
						OFFSET 5.34809 0.0 0.0
						CHANNELS 6 Xposition Yposition Zposition Zrotation Xrotation Yrotation 
						JOINT LowerArm_L
						{
							OFFSET 24.3286 1.87007e-05 0.0
							CHANNELS 6 Xposition Yposition Zposition Zrotation Xrotation Yrotation 
							JOINT Hand_L
							{
								OFFSET 22.2916 0.0 0.0
								CHANNELS 6 Xposition Yposition Zposition Zrotation Xrotation Yrotation 
								End Site
								{
									OFFSET 0.0 0.0 0.0
								}
							}
						}
					}
				}
				JOINT Shoulder_R
				{
					OFFSET 12.9945 -0.242716 -4.98039
					CHANNELS 6 Xposition Yposition Zposition Zrotation Xrotation Yrotation 
					JOINT UpperArm_R
					{
						OFFSET -5.34813 0.0 0.0
						CHANNELS 6 Xposition Yposition Zposition Zrotation Xrotation Yrotation 
						JOINT LowerArm_R
						{
							OFFSET -24.3289 0.000322201 0.0
							CHANNELS 6 Xposition Yposition Zposition Zrotation Xrotation Yrotation 
							JOINT Hand_R
							{
								OFFSET -22.2915 -0.000108084 0.0
								CHANNELS 6 Xposition Yposition Zposition Zrotation Xrotation Yrotation 
								End Site
								{
									OFFSET 0.0 0.0 0.0
								}
							}
						}
					}
				}
			}
		}
		JOINT UpperLeg_L
		{
			OFFSET -2.19248 -6.46944 0.0
			CHANNELS 6 Xposition Yposition Zposition Zrotation Xrotation Yrotation 
			JOINT LowerLeg_L
			{
				OFFSET 39.0811 0.0 -1.23785e-05
				CHANNELS 6 Xposition Yposition Zposition Zrotation Xrotation Yrotation 
				JOINT Foot_L
				{
					OFFSET 40.9854 0.0 -1.26872e-05
					CHANNELS 6 Xposition Yposition Zposition Zrotation Xrotation Yrotation 
					JOINT Toes_L
					{
						OFFSET 11.7543 0.0 0.0
						CHANNELS 6 Xposition Yposition Zposition Zrotation Xrotation Yrotation 
						End Site
						{
							OFFSET 0.0 0.0 0.0
						}
					}
				}
			}
		}
		JOINT UpperLeg_R
		{
			OFFSET -2.19251 6.46944 0.0
			CHANNELS 6 Xposition Yposition Zposition Zrotation Xrotation Yrotation 
			JOINT LowerLeg_R
			{
				OFFSET -39.0811 -0.00228153 -0.0401928
				CHANNELS 6 Xposition Yposition Zposition Zrotation Xrotation Yrotation 
				JOINT Foot_R
				{
					OFFSET -40.9854 0.0 0.0
					CHANNELS 6 Xposition Yposition Zposition Zrotation Xrotation Yrotation 
					JOINT Toes_R
					{
						OFFSET -11.7543 0.0 0.0
						CHANNELS 6 Xposition Yposition Zposition Zrotation Xrotation Yrotation 
						End Site
						{
							OFFSET 0.0 0.0 0.0
						}
					}
				}
			}
		}
	}
}
MOTION
Frames:	8
Frame Time:	0.0333333
0.000000 0.000000 0.000000 0.000000 0.000000 -0.000000 -1.407740 90.548700 -0.416449 89.165500 -2.795480 11.229300 15.735700 0.000005 -0.000001 87.176700 79.507400 -87.423800 8.984550 -0.406207 -0.000000 13.193100 -1.034610 -0.374606 16.377300 -0.000001 -0.000001 8.579720 -3.958280 1.868920 6.456720 -0.000001 -0.000000 -1.883400 -3.699530 0.040408 12.994200 -0.242716 4.980390 -91.230600 5.730700 -77.859200 5.348090 -0.000007 -0.000001 -55.354000 42.632200 -26.987600 24.328600 0.000019 0.000005 6.857570 19.638700 -19.688500 22.291600 -0.000001 0.000005 10.400300 5.309170 -0.186345 12.994500 -0.242716 -4.980390 89.182600 11.191500 -85.796000 -5.348130 -0.000001 -0.000004 -60.353600 35.098900 -18.028700 -24.328900 0.000322 -0.000009 3.446480 7.934600 -23.576800 -22.291500 -0.000108 -0.000004 15.486900 5.384570 -2.442360 -2.192480 -6.469440 -0.000000 -174.173000 -11.940100 -0.159340 39.081100 -0.000007 -0.000012 -0.196183 0.307710 32.520200 40.985400 -0.000006 -0.000013 0.407163 5.375450 -70.879400 11.754300 -0.000000 0.000003 -0.000149 -0.001443 -16.632400 -2.192510 6.469440 -0.000001 173.508000 22.486800 -178.563000 -39.081100 -0.002282 -0.040193 -0.212446 0.351304 31.555400 -40.985400 0.000008 0.000006 3.714660 14.024500 -71.036900 -11.754300 -0.000006 -0.000006 -0.003714 -0.048434 -18.543100
0.000000 0.000000 0.000000 0.000000 0.000000 -0.000000 -1.407490 90.543100 -0.413069 89.192300 -2.832320 11.248500 15.735700 0.000005 -0.000001 87.213000 79.477500 -87.471200 8.984550 -0.406207 -0.000000 13.253300 -1.024930 -0.397369 16.377300 -0.000001 -0.000001 8.494050 -3.951210 1.830130 6.456720 -0.000001 -0.000000 -1.868970 -3.701560 0.045396 12.994200 -0.242716 4.980390 -91.244700 5.789060 -77.844200 5.348090 -0.000007 -0.000001 -55.239000 42.631400 -27.094700 24.328600 0.000019 0.000005 6.848710 19.513700 -19.776500 22.291600 -0.000001 0.000005 10.468300 5.310830 -0.233423 12.994500 -0.242716 -4.980390 89.179400 11.189600 -85.778800 -5.348130 -0.000001 -0.000004 -60.771000 33.483500 -17.229500 -24.328900 0.000322 -0.000009 3.774570 7.818240 -25.880300 -22.291500 -0.000108 -0.000004 16.078300 5.388150 -2.556100 -2.192480 -6.469440 -0.000000 -174.187000 -12.012200 -0.131278 39.081100 -0.000007 -0.000012 -0.192684 0.302107 32.530100 40.985400 -0.000006 -0.000013 0.413072 5.373890 -70.893300 11.754300 -0.000000 0.000003 -0.000143 -0.001396 -16.630700 -2.192510 6.469440 -0.000001 173.453000 22.522800 -178.552000 -39.081100 -0.002282 -0.040193 -0.215744 0.356102 31.596400 -40.985400 0.000008 0.000006 3.741720 14.098500 -71.068300 -11.754300 -0.000006 -0.000006 -0.003592 -0.047123 -18.489800
0.000000 0.000000 0.000000 0.000000 0.000000 -0.000000 -1.409760 90.541800 -0.395317 89.199600 -2.873320 11.298200 15.735700 0.000005 -0.000001 87.226800 79.432800 -87.491900 8.984550 -0.406207 -0.000000 13.342900 -1.024570 -0.410252 16.377300 -0.000001 -0.000001 8.389540 -3.964690 1.818720 6.456720 -0.000001 -0.000000 -1.890780 -3.657120 -0.000931 12.994200 -0.242716 4.980390 -91.262000 5.858290 -77.820800 5.348090 -0.000007 -0.000001 -55.035100 42.657000 -27.285100 24.328600 0.000019 0.000005 6.828600 19.418100 -19.808500 22.291600 -0.000001 0.000005 10.430200 5.311560 -0.254139 12.994500 -0.242716 -4.980390 89.151400 11.205300 -85.641200 -5.348130 -0.000001 -0.000004 -61.291900 31.270200 -16.316500 -24.328900 0.000322 -0.000009 3.852460 6.987280 -28.974700 -22.291500 -0.000108 -0.000004 16.945600 5.398900 -2.900380 -2.192480 -6.469440 -0.000000 -174.169000 -12.010800 -0.046525 39.081100 -0.000007 -0.000012 -0.197111 0.309234 32.514400 40.985400 -0.000006 -0.000013 0.396958 5.358310 -70.907600 11.754300 -0.000000 0.000003 -0.000149 -0.001443 -16.632400 -2.192510 6.469440 -0.000001 173.433000 22.495600 -178.493000 -39.081100 -0.002282 -0.040193 -0.214184 0.353515 31.600100 -40.985400 0.000008 0.000006 3.745380 14.096000 -71.081300 -11.754300 -0.000006 -0.000006 -0.003564 -0.046830 -18.477800
0.000000 0.000000 0.000000 0.000000 0.000000 -0.000000 -1.406320 90.537000 -0.402519 89.202900 -2.894000 11.277800 15.735700 0.000005 -0.000001 87.127200 79.416100 -87.395600 8.984550 -0.406207 -0.000000 13.374300 -1.062720 -0.412250 16.377300 -0.000001 -0.000001 8.348340 -3.937390 1.778690 6.456720 -0.000001 -0.000000 -1.913480 -3.568420 -0.006505 12.994200 -0.242716 4.980390 -91.285300 5.936690 -77.760600 5.348090 -0.000007 -0.000001 -54.900200 42.664800 -27.403400 24.328600 0.000019 0.000005 6.854500 19.471500 -19.830000 22.291600 -0.000001 0.000005 10.531500 5.311540 -0.253540 12.994500 -0.242716 -4.980390 89.111600 11.228800 -85.447200 -5.348130 -0.000001 -0.000004 -61.698000 28.842700 -15.584500 -24.328900 0.000322 -0.000009 4.024950 6.311830 -32.628300 -22.291500 -0.000108 -0.000004 17.896500 5.405510 -3.116050 -2.192480 -6.469440 -0.000000 -174.175000 -12.055200 -0.095010 39.081100 -0.000007 -0.000012 -0.195888 0.306927 32.547400 40.985400 -0.000006 -0.000013 0.405295 5.359980 -70.910800 11.754300 -0.000000 0.000003 -0.000136 -0.001334 -16.628400 -2.192510 6.469440 -0.000001 173.448000 22.455500 -178.546000 -39.081100 -0.002282 -0.040193 -0.214807 0.354075 31.632800 -40.985400 0.000008 0.000006 3.737870 14.071700 -71.086500 -11.754300 -0.000006 -0.000006 -0.003624 -0.047467 -18.503800
0.000000 0.000000 0.000000 0.000000 0.000000 -0.000000 -1.397640 90.534800 -0.403372 89.217400 -2.936230 11.281400 15.735700 0.000005 -0.000001 86.985400 79.406400 -87.261800 8.984550 -0.406207 -0.000000 13.390900 -1.115920 -0.421851 16.377300 -0.000001 -0.000001 8.340410 -3.919340 1.737750 6.456720 -0.000001 -0.000000 -1.851420 -3.478170 -0.037270 12.994200 -0.242716 4.980390 -91.302700 5.997300 -77.720900 5.348090 -0.000007 -0.000001 -54.858600 42.650500 -27.394200 24.328600 0.000019 0.000005 6.862810 19.452300 -19.869800 22.291600 -0.000001 0.000005 10.510600 5.310070 -0.211874 12.994500 -0.242716 -4.980390 89.065500 11.225900 -85.210600 -5.348130 -0.000001 -0.000004 -61.986700 26.418900 -15.123700 -24.328900 0.000322 -0.000009 4.487800 6.079260 -36.548100 -22.291500 -0.000108 -0.000004 19.171600 5.412690 -3.354370 -2.192480 -6.469440 -0.000000 -174.181000 -12.115000 -0.076999 39.081100 -0.000007 -0.000012 -0.195799 0.306799 32.546300 40.985400 -0.000006 -0.000013 0.417855 5.379420 -70.920800 11.754300 -0.000000 0.000003 -0.000154 -0.001487 -16.634000 -2.192510 6.469440 -0.000001 173.456000 22.355700 -178.567000 -39.081100 -0.002282 -0.040193 -0.215377 0.354718 31.653100 -40.985400 0.000008 0.000006 3.720550 14.023100 -71.090400 -11.754300 -0.000006 -0.000006 -0.003659 -0.047847 -18.519200
0.000000 0.000000 0.000000 0.000000 0.000000 -0.000000 -1.388220 90.528800 -0.393963 89.228400 -2.974280 11.337200 15.735700 0.000005 -0.000001 86.779300 79.390900 -87.060500 8.984550 -0.406207 -0.000000 13.417900 -1.193200 -0.422204 16.377300 -0.000001 -0.000001 8.383340 -3.922620 1.688280 6.456720 -0.000001 -0.000000 -1.781140 -3.413500 -0.066586 12.994200 -0.242716 4.980390 -91.319200 6.064620 -77.703800 5.348090 -0.000007 -0.000001 -54.831500 42.666200 -27.341900 24.328600 0.000019 0.000005 6.832910 19.381100 -19.853700 22.291600 -0.000001 0.000005 10.499400 5.310310 -0.218678 12.994500 -0.242716 -4.980390 89.020700 11.223100 -84.980900 -5.348130 -0.000001 -0.000004 -62.099200 24.036800 -14.960400 -24.328900 0.000322 -0.000009 5.266750 6.167660 -40.632500 -22.291500 -0.000108 -0.000004 20.451600 5.416300 -3.475730 -2.192480 -6.469440 -0.000000 -174.173000 -12.160300 -0.013774 39.081100 -0.000007 -0.000012 -0.195824 0.306633 32.563700 40.985400 -0.000006 -0.000013 0.421292 5.370490 -70.940700 11.754300 -0.000000 0.000003 -0.000153 -0.001481 -16.633800 -2.192510 6.469440 -0.000001 173.420000 22.332400 -178.525000 -39.081100 -0.002282 -0.040193 -0.213282 0.350842 31.687900 -40.985400 0.000008 0.000006 3.729330 14.053500 -71.110300 -11.754300 -0.000006 -0.000006 -0.003657 -0.047821 -18.518200
0.000000 0.000000 0.000000 0.000000 0.000000 -0.000000 -1.378750 90.527900 -0.386386 89.227800 -3.056130 11.417000 15.735700 0.000005 -0.000001 86.676000 79.358200 -86.960900 8.984550 -0.406207 -0.000000 13.481000 -1.234970 -0.423997 16.377300 -0.000001 -0.000001 8.360570 -3.960780 1.675630 6.456720 -0.000001 -0.000000 -1.724860 -3.370500 -0.105955 12.994200 -0.242716 4.980390 -91.336500 6.136220 -77.687400 5.348090 -0.000007 -0.000001 -54.780900 42.699900 -27.324500 24.328600 0.000019 0.000005 6.863810 19.506100 -19.824000 22.291600 -0.000001 0.000005 10.527200 5.310560 -0.225925 12.994500 -0.242716 -4.980390 88.978200 11.238300 -84.770900 -5.348130 -0.000001 -0.000004 -62.032300 21.681400 -15.116700 -24.328900 0.000322 -0.000009 6.177610 6.243040 -44.869500 -22.291500 -0.000108 -0.000004 21.658300 5.414960 -3.430370 -2.192480 -6.469440 -0.000000 -174.149000 -12.176100 0.089807 39.081100 -0.000007 -0.000012 -0.197388 0.309166 32.556700 40.985400 -0.000006 -0.000013 0.414149 5.347320 -70.951600 11.754300 -0.000000 0.000003 -0.000142 -0.001388 -16.630400 -2.192510 6.469440 -0.000001 173.395000 22.247400 -178.446000 -39.081100 -0.002282 -0.040193 -0.215480 0.354419 31.686800 -40.985400 0.000008 0.000006 3.717750 14.051500 -71.107300 -11.754300 -0.000006 -0.000006 -0.003570 -0.046896 -18.480500
0.000000 0.000000 0.000000 0.000000 0.000000 -0.000000 -1.370210 90.520600 -0.403857 89.225700 -3.160630 11.453900 15.735700 0.000005 -0.000001 86.657300 79.349000 -86.944800 8.984550 -0.406207 -0.000000 13.498900 -1.243010 -0.427964 16.377300 -0.000001 -0.000001 8.357890 -4.006540 1.688680 6.456720 -0.000001 -0.000000 -1.699840 -3.357960 -0.129037 12.994200 -0.242716 4.980390 -91.353400 6.208950 -77.678000 5.348090 -0.000007 -0.000001 -54.781200 42.693400 -27.252500 24.328600 0.000019 0.000005 6.854710 19.468200 -19.833600 22.291600 -0.000001 0.000005 10.526200 5.308710 -0.173077 12.994500 -0.242716 -4.980390 88.946700 11.263200 -84.622600 -5.348130 -0.000001 -0.000004 -61.896100 19.286800 -15.366700 -24.328900 0.000322 -0.000009 7.296460 6.308590 -49.365900 -22.291500 -0.000108 -0.000004 22.955600 5.412340 -3.341930 -2.192480 -6.469440 -0.000000 -174.138000 -12.231900 0.116250 39.081100 -0.000007 -0.000012 -0.197522 0.308918 32.595200 40.985400 -0.000006 -0.000013 0.410475 5.297110 -70.972600 11.754300 -0.000000 0.000003 -0.000145 -0.001413 -16.631300 -2.192510 6.469440 -0.000001 173.415000 22.142600 -178.467000 -39.081100 -0.002282 -0.040193 -0.215059 0.353064 31.735600 -40.985400 0.000008 0.000006 3.721800 14.040500 -71.109800 -11.754300 -0.000006 -0.000006 -0.003675 -0.048015 -18.526100
